<?xml version="1.0" encoding="utf-8"?>
<!-- Generator: Adobe Illustrator 27.5.0, SVG Export Plug-In . SVG Version: 6.00 Build 0)  -->
<svg version="1.1" xmlns="http://www.w3.org/2000/svg" xmlns:xlink="http://www.w3.org/1999/xlink" x="0px" y="0px"
	 viewBox="0 0 500 500" style="enable-background:new 0 0 500 500;" xml:space="preserve">
<g id="Background_Simple">
	<g>
		<path style="fill:#92E3A9;" d="M436.998,132.514c-37.769-49.849-99.3-85.437-159.246-95.218C184,22,133,70,106,130s-84,69-86,139
			s43,91,94,110s66,48,127,61s124.209-4.477,151-41c26.791-36.523,59-65,75-118.002
			C483.596,226.021,468.632,174.266,436.998,132.514z"/>
		<path style="opacity:0.7;fill:#FFFFFF;" d="M436.998,132.514c-37.769-49.849-99.3-85.437-159.246-95.218C184,22,133,70,106,130
			s-84,69-86,139s43,91,94,110s66,48,127,61s124.209-4.477,151-41c26.791-36.523,59-65,75-118.002
			C483.596,226.021,468.632,174.266,436.998,132.514z"/>
	</g>
</g>
<g id="Plants">
	<g>
		<path style="fill:#263238;" d="M29.398,328.357c2.262,0.988,7.792,0.863,7.797,0.863c0.057-0.001-1.189-3.621-1.294-3.84
			c-1.213-2.539-5.052-6.73-8.174-6.308c-2.25,0.304-3.501,2.556-2.993,4.673C25.253,325.909,27.472,327.516,29.398,328.357z"/>
		<path style="fill:#263238;" d="M101.851,309.53c-3.133-0.337-6.856,3.956-8.001,6.527c-0.098,0.223-1.246,3.874-1.189,3.874
			c0,0,0.054,0,0.067-0.001c-0.593,0.673-1.221,1.402-1.891,2.212c-1.226,1.506-2.596,3.218-3.962,5.182
			c-1.371,1.959-2.805,4.127-4.109,6.546c-1.311,2.423-2.565,5.039-3.51,7.901c-0.011,0.032-0.017,0.067-0.028,0.1
			c0.016-0.923-0.024-3.506-0.05-3.703c-0.362-2.79-2.701-7.97-5.799-8.543c-2.232-0.412-4.123,1.337-4.301,3.507
			c-0.181,2.217,1.426,4.436,2.994,5.836c1.768,1.579,6.674,3.108,7.065,3.229c-0.875,2.734-1.55,5.611-2.073,8.56
			c-0.301,1.686-0.551,3.393-0.781,5.108c-0.012-0.799-0.028-1.513-0.041-1.612c-0.362-2.791-2.701-7.97-5.799-8.542
			c-2.232-0.413-4.123,1.336-4.3,3.507c-0.182,2.217,1.426,4.436,2.993,5.836c1.591,1.421,5.748,2.809,6.853,3.161
			c-0.081,0.659-0.17,1.316-0.248,1.975c-0.378,3.162-0.741,6.32-1.193,9.405c-0.158,1.088-0.354,2.153-0.547,3.219
			c-0.011-0.709-0.027-1.306-0.038-1.397c-0.362-2.791-2.701-7.97-5.799-8.543c-2.233-0.412-4.123,1.336-4.301,3.507
			c-0.182,2.216,1.426,4.436,2.994,5.836c1.517,1.356,5.343,2.671,6.654,3.096c-0.23,1.086-0.458,2.174-0.73,3.217
			c-0.202,0.708-0.347,1.402-0.589,2.102c-0.225,0.697-0.448,1.388-0.668,2.072c-0.474,1.301-0.954,2.646-1.447,3.904
			c-0.337,0.877-0.674,1.707-1.011,2.544c0.17-1.081,0.459-3.203,0.464-3.383c0.043-1.869-0.621-4.908-1.942-7.044
			c0.008-0.276-0.008-0.551-0.051-0.825c-0.346-2.15-2.366-3.748-4.56-3.163c-3.045,0.811-4.976,6.156-5.12,8.965
			c-0.008,0.166,0.1,1.975,0.187,3.115c-0.154-0.663-0.294-1.307-0.461-1.987c-0.319-1.347-0.678-2.681-1.058-4.119
			c-0.208-0.687-0.418-1.382-0.63-2.083c-0.195-0.7-0.491-1.415-0.736-2.13c-0.602-1.646-1.293-3.286-2.025-4.922
			c1.179-0.283,5.35-1.346,7.024-2.631c1.667-1.279,3.436-3.373,3.42-5.597c-0.016-2.178-1.77-4.063-4.027-3.818
			c-3.133,0.34-5.852,5.331-6.42,8.086c-0.035,0.172-0.221,2.195-0.301,3.309c-0.448-0.98-0.89-1.96-1.375-2.937
			c-1.4-2.82-2.905-5.63-4.394-8.441c-0.456-0.861-0.901-1.724-1.35-2.586c0.421-0.096,5.406-1.253,7.282-2.692
			c1.667-1.279,3.435-3.372,3.42-5.597c-0.016-2.178-1.771-4.063-4.027-3.817c-3.133,0.34-5.852,5.331-6.42,8.086
			c-0.043,0.208-0.306,3.119-0.336,3.863c-0.987-1.899-1.952-3.801-2.828-5.715c-1.212-2.639-2.255-5.295-3.076-7.943
			c0.196-0.044,5.404-1.228,7.326-2.702c1.667-1.279,3.436-3.372,3.42-5.597c-0.015-2.178-1.77-4.063-4.027-3.818
			c-3.133,0.34-5.851,5.331-6.42,8.086c-0.045,0.217-0.326,3.349-0.336,3.921c-0.049-0.158-0.116-0.315-0.163-0.473
			c-0.84-2.838-1.297-5.693-1.594-8.387c-0.176-1.565-0.256-3.07-0.301-4.537c0.993-0.121,5.523-0.724,7.399-1.86
			c1.798-1.089,3.786-2.975,4.014-5.187c0.223-2.167-1.314-4.233-3.584-4.237c-3.151-0.006-6.401,4.656-7.269,7.332
			c-0.047,0.146-0.363,1.679-0.577,2.798c-0.01-0.662-0.034-1.346-0.031-1.98c0.005-2.383,0.155-4.564,0.304-6.496
			c0.094-1.098,0.2-2.088,0.31-3.014c0.912-0.627,4.556-3.2,5.677-5.038c1.094-1.794,1.988-4.384,1.172-6.453
			c-0.8-2.026-3.117-3.151-5.133-2.109c-2.799,1.447-3.536,7.082-3.073,9.858c0.041,0.24,1.098,3.919,1.146,3.887
			c0,0,0.045-0.031,0.055-0.038c-0.123,0.888-0.244,1.843-0.357,2.888c-0.192,1.932-0.39,4.116-0.446,6.509
			c-0.062,2.39-0.063,4.989,0.184,7.727c0.244,2.744,0.64,5.618,1.431,8.527c0.009,0.033,0.023,0.066,0.032,0.099
			c-0.496-0.779-1.955-2.91-2.086-3.061c-1.841-2.128-6.649-5.158-9.55-3.926c-2.089,0.888-2.702,3.389-1.652,5.298
			c1.072,1.949,3.637,2.913,5.716,3.216c2.346,0.342,7.282-1.089,7.674-1.205c0.78,2.763,1.803,5.535,2.994,8.284
			c0.679,1.572,1.412,3.134,2.166,4.691c-0.45-0.659-0.858-1.246-0.924-1.322c-1.841-2.128-6.65-5.157-9.55-3.925
			c-2.09,0.887-2.702,3.389-1.652,5.298c1.071,1.949,3.637,2.913,5.716,3.216c2.11,0.308,6.343-0.828,7.459-1.144
			c0.296,0.594,0.584,1.191,0.883,1.784c1.429,2.846,2.868,5.68,4.194,8.503c0.468,0.995,0.892,1.991,1.32,2.987
			c-0.401-0.586-0.743-1.075-0.803-1.145c-1.841-2.128-6.649-5.157-9.55-3.925c-2.09,0.888-2.702,3.389-1.652,5.298
			c1.072,1.949,3.637,2.914,5.716,3.216c2.014,0.294,5.93-0.72,7.258-1.088c0.408,1.033,0.818,2.067,1.166,3.086
			c0.222,0.701,0.485,1.361,0.669,2.078c0.197,0.706,0.392,1.405,0.585,2.097c0.323,1.346,0.665,2.734,0.946,4.055
			c0.203,0.917,0.38,1.796,0.561,2.68c-0.454-0.995-1.384-2.926-1.48-3.078c-1.497-2.382-5.791-6.105-8.845-5.327
			c-2.2,0.561-3.184,2.941-2.435,4.986c0.764,2.089,3.153,3.43,5.162,4.045c2.213,0.676,7.112,0.058,7.724-0.023
			c0.294,1.464,0.565,2.891,0.8,4.241c0.825,4.679,1.334,8.608,1.652,11.358c0.056,0.488,0.104,0.925,0.148,1.336h-9.483L53.189,473
			h16.16l3.463-67.567h-8.835c0.065-0.136,0.127-0.262,0.196-0.405c1.212-2.526,2.893-6.155,4.709-10.596
			c0.577-1.402,1.166-2.912,1.756-4.467c0.593,0.124,5.443,1.109,7.703,0.599c2.049-0.463,4.532-1.623,5.45-3.65
			c0.898-1.984,0.094-4.431-2.058-5.154c-2.987-1.004-7.546,2.389-9.217,4.653c-0.099,0.133-1.006,1.702-1.562,2.701
			c0.238-0.637,0.475-1.253,0.712-1.912c0.477-1.299,0.914-2.61,1.39-4.019c0.206-0.688,0.414-1.383,0.624-2.085
			c0.223-0.692,0.371-1.451,0.561-2.183c0.406-1.706,0.734-3.454,1.026-5.222c1.139,0.414,5.204,1.829,7.31,1.681
			c2.097-0.148,4.726-0.917,5.94-2.782c1.189-1.825,0.764-4.366-1.253-5.406c-2.801-1.444-7.822,1.219-9.816,3.204
			c-0.124,0.124-1.395,1.709-2.077,2.593c0.167-1.065,0.339-2.126,0.474-3.208c0.388-3.124,0.683-6.299,0.992-9.464
			c0.094-0.97,0.199-1.935,0.301-2.901c0.404,0.152,5.2,1.937,7.559,1.771c2.096-0.147,4.726-0.917,5.94-2.781
			c1.189-1.825,0.765-4.366-1.253-5.406c-2.8-1.444-7.821,1.218-9.815,3.203c-0.15,0.15-1.976,2.433-2.412,3.036
			c0.225-2.129,0.469-4.248,0.794-6.327c0.445-2.87,1.04-5.66,1.816-8.322c0.188,0.072,5.185,1.957,7.601,1.788
			c2.097-0.147,4.727-0.918,5.94-2.782c1.189-1.825,0.765-4.365-1.253-5.406c-2.801-1.445-7.821,1.218-9.816,3.203
			c-0.156,0.156-2.119,2.614-2.443,3.085c0.047-0.158,0.077-0.327,0.126-0.484c0.865-2.83,2.059-5.464,3.297-7.875
			c0.717-1.402,1.48-2.702,2.251-3.951c0.895,0.447,5.006,2.443,7.197,2.531c2.1,0.084,4.799-0.393,6.21-2.112
			c1.382-1.684,1.239-4.255-0.651-5.511c-2.625-1.743-7.908,0.352-10.108,2.106c-0.119,0.095-1.228,1.2-2.025,2.015
			c0.356-0.558,0.714-1.141,1.066-1.668c1.318-1.985,2.647-3.722,3.837-5.25c0.683-0.863,1.318-1.631,1.921-2.343
			c1.106-0.02,5.565-0.155,7.514-1.07c1.902-0.893,4.078-2.56,4.538-4.736C105.419,311.99,104.108,309.773,101.851,309.53z
			 M67.161,393.705c-1.893,4.358-3.636,7.916-4.888,10.384c-0.253,0.498-0.479,0.938-0.689,1.344h-0.21
			c-0.061-0.482-0.13-1.009-0.212-1.601c-0.382-2.775-0.982-6.73-1.918-11.436c-0.292-1.488-0.634-3.071-1-4.695
			c0.368-0.146,2.458-0.991,4.309-2.026c1.613,1.746,5.745,3.791,6.281,4.051C68.271,391.109,67.711,392.449,67.161,393.705z"/>
		<path style="fill:#263238;" d="M85.342,329.574c0.049,0.031,1.006-3.676,1.04-3.917c0.388-2.787-0.501-8.4-3.338-9.771
			c-2.044-0.987-4.329,0.2-5.074,2.247c-0.761,2.09,0.204,4.655,1.346,6.419C80.657,326.624,85.339,329.571,85.342,329.574z"/>
	</g>
	<g>
		<path style="fill:#263238;" d="M403.465,328.357c2.262,0.988,7.792,0.863,7.797,0.863c0.057-0.001-1.189-3.621-1.294-3.84
			c-1.213-2.539-5.051-6.73-8.174-6.308c-2.25,0.304-3.501,2.556-2.993,4.673C399.32,325.909,401.54,327.516,403.465,328.357z"/>
		<path style="fill:#263238;" d="M475.919,309.53c-3.133-0.337-6.856,3.956-8.001,6.527c-0.098,0.223-1.246,3.874-1.189,3.874
			c0,0,0.054,0,0.067-0.001c-0.593,0.673-1.221,1.402-1.891,2.212c-1.226,1.506-2.596,3.218-3.962,5.182
			c-1.371,1.959-2.805,4.127-4.109,6.546c-1.311,2.423-2.565,5.039-3.51,7.901c-0.011,0.032-0.017,0.067-0.028,0.1
			c0.016-0.923-0.024-3.506-0.05-3.703c-0.362-2.79-2.7-7.97-5.799-8.543c-2.232-0.412-4.123,1.337-4.301,3.507
			c-0.181,2.217,1.426,4.436,2.994,5.836c1.768,1.579,6.674,3.108,7.065,3.229c-0.875,2.734-1.55,5.611-2.073,8.56
			c-0.301,1.686-0.552,3.393-0.781,5.108c-0.012-0.799-0.028-1.513-0.041-1.612c-0.362-2.791-2.701-7.97-5.799-8.542
			c-2.233-0.413-4.123,1.336-4.301,3.507c-0.182,2.217,1.426,4.436,2.993,5.836c1.591,1.421,5.748,2.809,6.853,3.161
			c-0.081,0.659-0.17,1.316-0.248,1.975c-0.378,3.162-0.741,6.32-1.193,9.405c-0.158,1.088-0.354,2.153-0.547,3.219
			c-0.011-0.709-0.026-1.306-0.038-1.397c-0.362-2.791-2.701-7.97-5.799-8.543c-2.233-0.412-4.123,1.336-4.302,3.507
			c-0.182,2.216,1.426,4.436,2.994,5.836c1.517,1.356,5.343,2.671,6.654,3.096c-0.23,1.086-0.458,2.174-0.73,3.217
			c-0.202,0.708-0.347,1.402-0.589,2.102c-0.225,0.697-0.448,1.388-0.668,2.072c-0.474,1.301-0.954,2.646-1.447,3.904
			c-0.337,0.877-0.674,1.707-1.011,2.544c0.17-1.081,0.459-3.203,0.464-3.383c0.043-1.869-0.621-4.908-1.942-7.044
			c0.008-0.276-0.008-0.551-0.051-0.825c-0.346-2.15-2.366-3.748-4.56-3.163c-3.045,0.811-4.976,6.156-5.12,8.965
			c-0.008,0.166,0.1,1.975,0.187,3.115c-0.154-0.663-0.294-1.307-0.461-1.987c-0.32-1.347-0.678-2.681-1.058-4.119
			c-0.207-0.687-0.418-1.382-0.63-2.083c-0.195-0.7-0.491-1.415-0.736-2.13c-0.602-1.646-1.293-3.286-2.025-4.922
			c1.179-0.283,5.35-1.346,7.025-2.631c1.667-1.279,3.436-3.373,3.42-5.597c-0.016-2.178-1.77-4.063-4.027-3.818
			c-3.133,0.34-5.852,5.331-6.42,8.086c-0.035,0.172-0.221,2.195-0.301,3.309c-0.448-0.98-0.89-1.96-1.375-2.937
			c-1.4-2.82-2.905-5.63-4.394-8.441c-0.457-0.861-0.901-1.724-1.35-2.586c0.421-0.096,5.406-1.253,7.282-2.692
			c1.667-1.279,3.435-3.372,3.42-5.597c-0.016-2.178-1.771-4.063-4.027-3.817c-3.133,0.34-5.852,5.331-6.42,8.086
			c-0.043,0.208-0.306,3.119-0.336,3.863c-0.987-1.899-1.952-3.801-2.828-5.715c-1.212-2.639-2.255-5.295-3.076-7.943
			c0.196-0.044,5.404-1.228,7.326-2.702c1.667-1.279,3.436-3.372,3.42-5.597c-0.015-2.178-1.77-4.063-4.027-3.818
			c-3.133,0.34-5.851,5.331-6.42,8.086c-0.045,0.217-0.326,3.349-0.336,3.921c-0.049-0.158-0.116-0.315-0.163-0.473
			c-0.84-2.838-1.297-5.693-1.594-8.387c-0.176-1.565-0.256-3.07-0.301-4.537c0.993-0.121,5.523-0.724,7.399-1.86
			c1.798-1.089,3.786-2.975,4.014-5.187c0.224-2.167-1.314-4.233-3.584-4.237c-3.151-0.006-6.401,4.656-7.269,7.332
			c-0.047,0.146-0.363,1.679-0.577,2.798c-0.01-0.662-0.034-1.346-0.031-1.98c0.005-2.383,0.155-4.564,0.304-6.496
			c0.094-1.098,0.2-2.088,0.31-3.014c0.912-0.627,4.556-3.2,5.677-5.038c1.094-1.794,1.988-4.384,1.172-6.453
			c-0.8-2.026-3.117-3.151-5.133-2.109c-2.799,1.447-3.536,7.082-3.073,9.858c0.041,0.24,1.098,3.919,1.146,3.887
			c0,0,0.045-0.031,0.055-0.038c-0.123,0.888-0.244,1.843-0.357,2.888c-0.192,1.932-0.391,4.116-0.446,6.509
			c-0.062,2.39-0.063,4.989,0.184,7.727c0.244,2.744,0.64,5.618,1.431,8.527c0.009,0.033,0.023,0.066,0.032,0.099
			c-0.496-0.779-1.955-2.91-2.086-3.061c-1.841-2.128-6.649-5.158-9.55-3.926c-2.089,0.888-2.702,3.389-1.652,5.298
			c1.072,1.949,3.637,2.913,5.716,3.216c2.346,0.342,7.282-1.089,7.674-1.205c0.78,2.763,1.803,5.535,2.994,8.284
			c0.679,1.572,1.412,3.134,2.166,4.691c-0.45-0.659-0.858-1.246-0.923-1.322c-1.841-2.128-6.65-5.157-9.55-3.925
			c-2.09,0.887-2.702,3.389-1.652,5.298c1.071,1.949,3.637,2.913,5.716,3.216c2.11,0.308,6.343-0.828,7.459-1.144
			c0.296,0.594,0.584,1.191,0.883,1.784c1.429,2.846,2.868,5.68,4.194,8.503c0.468,0.995,0.892,1.991,1.32,2.987
			c-0.401-0.586-0.743-1.075-0.803-1.145c-1.841-2.128-6.649-5.157-9.549-3.925c-2.09,0.888-2.702,3.389-1.652,5.298
			c1.072,1.949,3.637,2.914,5.716,3.216c2.014,0.294,5.93-0.72,7.258-1.088c0.408,1.033,0.818,2.067,1.166,3.086
			c0.222,0.701,0.485,1.361,0.669,2.078c0.197,0.706,0.392,1.405,0.585,2.097c0.323,1.346,0.665,2.734,0.947,4.055
			c0.203,0.917,0.38,1.796,0.561,2.68c-0.454-0.995-1.384-2.926-1.48-3.078c-1.497-2.382-5.791-6.105-8.845-5.327
			c-2.2,0.561-3.184,2.941-2.435,4.986c0.764,2.089,3.153,3.43,5.163,4.045c2.213,0.676,7.112,0.058,7.724-0.023
			c0.294,1.464,0.565,2.891,0.8,4.241c0.825,4.679,1.334,8.608,1.652,11.358c0.056,0.488,0.104,0.925,0.148,1.336h-9.483
			L427.257,473h16.16l3.463-67.567h-8.835c0.065-0.136,0.127-0.262,0.196-0.405c1.212-2.526,2.893-6.155,4.709-10.596
			c0.577-1.402,1.166-2.912,1.756-4.467c0.593,0.124,5.443,1.109,7.703,0.599c2.049-0.463,4.532-1.623,5.45-3.65
			c0.898-1.984,0.094-4.431-2.058-5.154c-2.986-1.004-7.546,2.389-9.217,4.653c-0.099,0.133-1.006,1.702-1.562,2.701
			c0.238-0.637,0.475-1.253,0.712-1.912c0.477-1.299,0.914-2.61,1.39-4.019c0.206-0.688,0.414-1.383,0.624-2.085
			c0.223-0.692,0.371-1.451,0.561-2.183c0.406-1.706,0.734-3.454,1.027-5.222c1.139,0.414,5.204,1.829,7.31,1.681
			c2.097-0.148,4.726-0.917,5.94-2.782c1.189-1.825,0.764-4.366-1.253-5.406c-2.801-1.444-7.822,1.219-9.816,3.204
			c-0.124,0.124-1.395,1.709-2.077,2.593c0.167-1.065,0.339-2.126,0.473-3.208c0.388-3.124,0.683-6.299,0.992-9.464
			c0.094-0.97,0.199-1.935,0.301-2.901c0.404,0.152,5.2,1.937,7.559,1.771c2.096-0.147,4.726-0.917,5.94-2.781
			c1.189-1.825,0.765-4.366-1.253-5.406c-2.8-1.444-7.821,1.218-9.815,3.203c-0.15,0.15-1.976,2.433-2.412,3.036
			c0.225-2.129,0.469-4.248,0.794-6.327c0.445-2.87,1.04-5.66,1.816-8.322c0.188,0.072,5.185,1.957,7.601,1.788
			c2.097-0.147,4.727-0.918,5.94-2.782c1.189-1.825,0.765-4.365-1.253-5.406c-2.801-1.445-7.821,1.218-9.816,3.203
			c-0.156,0.156-2.119,2.614-2.443,3.085c0.047-0.158,0.077-0.327,0.126-0.484c0.865-2.83,2.059-5.464,3.297-7.875
			c0.717-1.402,1.48-2.702,2.251-3.951c0.895,0.447,5.006,2.443,7.197,2.531c2.1,0.084,4.798-0.393,6.21-2.112
			c1.382-1.684,1.24-4.255-0.651-5.511c-2.625-1.743-7.908,0.352-10.108,2.106c-0.12,0.095-1.228,1.2-2.025,2.015
			c0.356-0.558,0.714-1.141,1.066-1.668c1.318-1.985,2.647-3.722,3.837-5.25c0.684-0.863,1.319-1.631,1.921-2.343
			c1.106-0.02,5.565-0.155,7.514-1.07c1.902-0.893,4.078-2.56,4.538-4.736C479.487,311.99,478.175,309.773,475.919,309.53z
			 M441.229,393.705c-1.893,4.358-3.636,7.916-4.888,10.384c-0.253,0.498-0.48,0.938-0.689,1.344h-0.21
			c-0.061-0.482-0.13-1.009-0.212-1.601c-0.382-2.775-0.982-6.73-1.918-11.436c-0.292-1.488-0.634-3.071-1-4.695
			c0.368-0.146,2.458-0.991,4.309-2.026c1.613,1.746,5.745,3.791,6.281,4.051C442.339,391.109,441.779,392.449,441.229,393.705z"/>
		<path style="fill:#263238;" d="M459.41,329.574c0.049,0.031,1.006-3.676,1.04-3.917c0.388-2.787-0.501-8.4-3.338-9.771
			c-2.044-0.987-4.329,0.2-5.074,2.247c-0.761,2.09,0.204,4.655,1.346,6.419C454.724,326.624,459.407,329.571,459.41,329.574z"/>
	</g>
</g>
<g id="Character_2">
	<g>
		<g>
			<g>
				<path style="fill:#CCCCCC;stroke:#263238;stroke-linecap:round;stroke-miterlimit:10;" d="M278.096,168.178l-3.085-5.484
					c0,0-2.571-6.512-3.942-8.226c-1.371-1.714-4.113-2.571-6.684-2.742s-4.113-1.2-5.141-1.714
					c-1.028-0.514-2.914-0.857-2.914,0.686c0,1.542,0.343,4.456,2.399,4.97c2.057,0.514,5.141,1.885,5.141,1.885
					s-7.198,1.542-8.912,1.885c-1.714,0.343-8.74,1.2-9.597,1.885s0,2.571,0,2.571s-1.885,1.2,0.171,2.742
					c2.057,1.542,10.283,4.285,10.283,4.285s-0.343,0.171,3.599,2.399c3.942,2.228,13.196,4.284,13.196,4.284L278.096,168.178z"/>
				<path style="fill:#CCCCCC;stroke:#263238;stroke-linecap:round;stroke-miterlimit:10;" d="M260.444,175.033
					c0,0-4.97-3.942-5.655-5.827c-0.686-1.885-2.228-8.74-0.343-9.083c1.885-0.343,3.77,5.313,3.428,5.998
					c-0.343,0.686,1.714,3.428,1.885,3.942s1.542,1.714,1.542,1.714"/>
				<path style="fill:#CCCCCC;stroke:#263238;stroke-linecap:round;stroke-miterlimit:10;" d="M271.069,169.891
					c0,0-2.571-0.343-3.428-0.343s-4.97,1.2-4.97,1.2s-0.857-8.74-2.913-8.912c-2.056-0.171-2.571,2.228-1.885,4.285
					c0.686,2.057,0.857,8.912,2.228,9.597c1.371,0.686,10.968,1.714,10.968,1.714"/>
				
					<line style="fill:none;stroke:#263238;stroke-linecap:round;stroke-miterlimit:10;" x1="245.363" y1="163.893" x2="253.075" y2="164.065"/>
			</g>
			<polygon style="fill:#FFFFFF;stroke:#263238;stroke-linecap:round;stroke-miterlimit:10;" points="281.73,169.523 
				277.31,166.208 270.129,180.019 277.586,184.162 			"/>
			<path style="fill:#696969;stroke:#263238;stroke-linecap:round;stroke-miterlimit:10;" d="M357.136,129.748l-32.87,10.496
				l-20.164,47.233l-23.478-18.783l-7.458,19.611c0,0,41.432,30.384,43.089,30.384c1.657,0,10.22-10.22,10.22-10.22l0.552,7.182
				l-4.972,16.849h67.12l3.591-29.279l2.762-9.391l3.867,20.44c0,0,6.905,4.143,13.258,3.038
				c6.353-1.105,10.496-12.706,10.496-12.706l-13.258-55.243c0,0-2.486-3.038-3.591-3.591c-1.105-0.552-29.751-16.005-29.751-16.005
				L357.136,129.748z"/>
			<path style="fill:none;stroke:#263238;stroke-linecap:round;stroke-miterlimit:10;" d="M345.853,133.913l-9.432,17.656
				l7.734,5.524c0,0-6.077,2.21-7.182,2.762c-1.105,0.552,0.829,16.02,3.591,23.202c2.762,7.182,8.01,16.02,8.01,16.02l-3.591,4.143
				l1.934,28.174"/>
			<path style="fill:none;stroke:#263238;stroke-linecap:round;stroke-miterlimit:10;" d="M348.85,200.735
				c0,0,17.125-9.668,22.65-18.23c5.524-8.563,8.839-19.887,8.839-19.887l-5.524-3.315l8.286-3.038c0,0-1.657-13.535-1.657-19.887
				c0-1.461-0.029-2.644-0.074-3.6"/>
			<g>
				<path style="fill:#FFFFFF;stroke:#263238;stroke-linecap:round;stroke-miterlimit:10;" d="M353.822,127.538
					c0,0-4.419,13.811-4.419,20.44c0,6.629,1.934,45.852,1.934,45.852s16.573-33.422,19.335-38.946
					c2.762-5.524,4.143-10.496,4.972-15.192c0.829-4.696,1.105-14.639,1.105-14.639s-7.182,2.21-12.43,2.762
					C359.07,128.367,353.822,127.538,353.822,127.538z"/>
				<path style="fill:#92E3A9;stroke:#263238;stroke-linecap:round;stroke-miterlimit:10;" d="M362.384,136.654l-7.734,7.458
					l1.934,9.667l-6.219,19.515c0.485,10.671,0.971,20.536,0.971,20.536s6.334-12.773,11.823-23.833l-3.261-16.495l7.458-8.286
					L362.384,136.654z"/>
				<path style="fill:#FFFFFF;stroke:#263238;stroke-linecap:round;stroke-miterlimit:10;" d="M353.822,127.538
					c0,0-4.419,13.811-4.419,20.44c0,0.246,0.003,0.55,0.009,0.883l10.764-6.407l1.657,0.553l9.519,10.447
					c2.306-4.956,3.536-9.476,4.292-13.762c0.829-4.696,1.105-14.639,1.105-14.639s-7.182,2.21-12.43,2.762
					C359.07,128.367,353.822,127.538,353.822,127.538z"/>
				<path style="fill:#CCCCCC;stroke:#263238;stroke-linecap:round;stroke-miterlimit:10;" d="M376.551,129.764
					c0.139-2.667,0.196-4.711,0.196-4.711s-7.182,2.21-12.43,2.762c-5.248,0.552-10.496-0.276-10.496-0.276
					s4.419,14.363,6.353,14.915C361.954,142.962,371.21,138.08,376.551,129.764z"/>
			</g>
			<g>
				<path style="fill:#CCCCCC;stroke:#263238;stroke-linecap:round;stroke-miterlimit:10;" d="M353.387,78.139
					c0,0-2.67-0.728-4.369,3.884c-1.699,4.612-0.486,20.632-0.486,20.632s-1.214-4.126-3.155-0.243
					c-1.942,3.884,0.728,9.466,1.456,10.195c0.728,0.728,1.699,1.456,1.699,1.456h0.971c0,0,0,9.224,1.456,11.165
					c1.456,1.942,5.34,8.495,7.282,8.738c1.942,0.243,7.039,0.243,7.767,0.243c0.728,0,10.195-6.311,11.894-8.738
					c1.699-2.427,3.155-8.253,3.155-8.253s6.554-3.398,7.039-8.01c0.485-4.612-2.67-6.796-3.398-6.796
					c-0.728,0-1.456,0.243-1.456,0.243s3.398-12.379,1.942-18.933c-1.456-6.553-17.962-9.709-23.544-9.224
					C356.057,74.984,353.387,78.139,353.387,78.139z"/>
				<g>
					<path style="fill:none;stroke:#263238;stroke-linecap:round;stroke-miterlimit:10;" d="M347.086,100.763l1.447,1.892
						C348.532,102.655,348.002,100.871,347.086,100.763z"/>
					<path style="fill:#263238;stroke:#263238;stroke-linecap:round;stroke-miterlimit:10;" d="M384.148,102.452
						c-0.504,0.069-0.906,0.202-0.906,0.202s3.398-12.379,1.942-18.933c-1.456-6.553-13.493-12.177-22.009-10.285
						c-5.47,1.216-9.788,4.702-9.788,4.702s-2.67-0.728-4.369,3.884c-1.699,4.612-0.486,20.632-0.486,20.632l0.243-7.767
						c0,0,0.971-5.583,2.185-8.01c1.214-2.427,5.34-5.097,5.34-5.097s4.369,2.185,7.767,2.913c3.398,0.728,10.68-1.699,10.68-1.699
						s2.427,1.456,2.67,3.641c0.243,2.185-1.214,5.583-0.971,8.01c0.243,2.427,4.126,5.825,4.126,5.825s-1.699,5.097,0.728,5.097
						C382.191,105.567,383.212,104.19,384.148,102.452z"/>
				</g>
				<path style="fill:none;stroke:#263238;stroke-linecap:round;stroke-miterlimit:10;" d="M358.969,107.024
					c0,0-3.884,8.495-2.427,9.466c1.456,0.971,5.583,1.214,7.282,0.971c1.699-0.243,2.427-0.971,2.427-0.971l3.398,5.583"/>
				<path style="fill:none;stroke:#263238;stroke-linecap:round;stroke-miterlimit:10;" d="M355.329,115.762
					c0,0-1.214,1.942-1.214,4.126"/>
				<path style="fill:none;stroke:#263238;stroke-linecap:round;stroke-miterlimit:10;" d="M356.542,123.286
					c0,0,8.981-0.243,9.709,0.728"/>
				<ellipse style="fill:#263238;" cx="369.029" cy="105.627" rx="1.096" ry="1.771"/>
				<path style="fill:#263238;" d="M356.293,103.771c0,0.978-0.491,1.771-1.096,1.771c-0.605,0-1.096-0.793-1.096-1.771
					c0-0.978,0.491-1.771,1.096-1.771C355.802,102,356.293,102.793,356.293,103.771z"/>
				<path style="fill:none;stroke:#263238;stroke-linecap:round;stroke-miterlimit:10;" d="M363.716,101.157
					c0,0,5.735-1.012,9.447-0.675"/>
				<path style="fill:none;stroke:#263238;stroke-linecap:round;stroke-miterlimit:10;" d="M357.98,100.988
					c0,0-2.53-1.687-6.241-1.687"/>
			</g>
			<polygon style="fill:#FFFFFF;stroke:#263238;stroke-linecap:round;stroke-miterlimit:10;" points="382.272,173.114 
				392.768,173.666 390.006,170.628 			"/>
			
				<line style="fill:none;stroke:#263238;stroke-linecap:round;stroke-miterlimit:10;" x1="395.53" y1="193.83" x2="399.397" y2="162.618"/>
			<path style="fill:#FFFFFF;stroke:#263238;stroke-linecap:round;stroke-miterlimit:10;" d="M393.32,221.451l-3.315,3.867
				l11.049,6.353l4.696-5.248C405.75,226.423,396.635,220.899,393.32,221.451z"/>
			<path style="fill:#696969;stroke:#263238;stroke-linecap:round;stroke-miterlimit:10;" d="M416.246,207.917
				c0,0-9.944-0.552-11.601,0c-1.657,0.552-11.325,13.535-11.325,13.535s2.486-0.552,7.458,2.762
				c4.972,3.315,7.734,5.248,7.734,5.248s14.087-8.563,16.297-11.325c2.21-2.762,1.934-8.286,0-12.153s-2.486-4.696-2.486-4.696"/>
			<g>
				<path style="fill:#CCCCCC;stroke:#263238;stroke-linecap:round;stroke-miterlimit:10;" d="M400.467,230.114
					c0,0-9.26-6.055-11.13-6.856c-1.87-0.801-3.206-0.89-4.363-0.356c-1.158,0.534-6.856,8.993-6.856,8.993h24.041L400.467,230.114z
					"/>
				<path style="fill:none;stroke:#263238;stroke-linecap:round;stroke-miterlimit:10;" d="M382.481,231.984
					c0,0,4.986-6.589,6.144-7.479c1.157-0.89,1.87-0.712,1.87-0.712"/>
				<path style="fill:none;stroke:#263238;stroke-linecap:round;stroke-miterlimit:10;" d="M388.803,231.627
					c0,0,3.027-5.787,4.808-5.877"/>
				
					<line style="fill:none;stroke:#263238;stroke-linecap:round;stroke-miterlimit:10;" x1="393.611" y1="231.805" x2="396.639" y2="227.621"/>
			</g>
			<path style="fill:none;stroke:#263238;stroke-linecap:round;stroke-miterlimit:10;" d="M326.476,208.469
				c0,0-5.248-39.775,0.276-55.795"/>
		</g>
		<g>
			<polygon style="fill:#FFFFFF;stroke:#263238;stroke-linecap:round;stroke-miterlimit:10;" points="403.88,473.667 
				306.28,473.667 294.08,229 416.08,229 			"/>
			<polygon style="fill:#263238;" points="412.141,308 415.531,240 294.628,240 298.019,308 			"/>
			<path style="fill:#263238;" d="M363.475,219.021c-0.012-0.741-0.43-1.374-1.034-1.709c-0.222-9.974-0.935-19.849-1.477-26.213
				c1.125-0.515,1.863-1.688,1.744-2.99c-0.294-3.222-0.505-5.151-0.505-5.151c-0.18-1.647-1.661-2.839-3.308-2.656
				c-1.647,0.18-2.836,1.661-2.657,3.308c0.002,0.015,0.207,1.901,0.494,5.045c0.118,1.296,1.048,2.313,2.239,2.621
				c0.54,6.335,1.249,16.16,1.47,26.076c-0.586,0.357-0.977,0.999-0.965,1.735c0.104,6.388-0.024,11.98-0.381,16.622
				c-0.084,1.102,0.739,2.063,1.841,2.148c0.052,0.004,0.104,0.006,0.155,0.006c1.035,0,1.912-0.798,1.992-1.847
				C363.449,231.25,363.581,225.533,363.475,219.021z"/>
			
				<rect x="282.08" y="229" style="fill:#FFFFFF;stroke:#263238;stroke-linecap:round;stroke-miterlimit:10;" width="146" height="69.333"/>
			<rect x="281.589" y="229" style="fill:#263238;" width="146" height="18.214"/>
			
				<rect x="278.746" y="229" style="fill:#FFFFFF;stroke:#263238;stroke-linecap:round;stroke-miterlimit:10;" width="152.667" height="11.333"/>
		</g>
	</g>
</g>
<g id="Character_1">
	<g>
		<g>
			<path style="fill:#92E3A9;stroke:#263238;stroke-linecap:round;stroke-miterlimit:10;" d="M119.796,133.785c0,0-4.75,4-11,7.5
				s-20.5,10-21,12.75s-6.759,63.442-6.509,64.442s12,1.75,13,1.75s6.259-27.692,6.259-27.692s5,11.25,5.25,12
				s-5.009,26.942-5.009,26.942h61.75l0.509-29.942l1.25-3.25l1.241,19.692l16-2c0,0-4.991-43.692-4.991-46.942s0.5-18.25-0.5-19.75
				s-31.75-12.25-31.75-12.25l-6.758-5.722l-18.243,0.222L119.796,133.785z"/>
			<g>
				<path style="fill:#B2B2B2;stroke:#263238;stroke-linecap:round;stroke-miterlimit:10;" d="M144.296,137.035l-6.758-5.722
					l-18.243,0.222l0.5,2.25c0,0-4.75,4-11,7.5c-1.585,0.888-3.686,1.969-5.946,3.133c1.813,2.379,9.301,10.672,27.446,13.617
					c13.184-1.217,22.912-12.472,26.113-16.675C149.906,138.996,144.296,137.035,144.296,137.035z"/>
				
					<line style="fill:#FFFFFF;stroke:#263238;stroke-linecap:round;stroke-miterlimit:10;" x1="113.046" y1="145.5" x2="129.546" y2="148.5"/>
				
					<line style="fill:#FFFFFF;stroke:#263238;stroke-linecap:round;stroke-miterlimit:10;" x1="137.046" y1="147" x2="148.546" y2="144.5"/>
			</g>
			<g>
				
					<line style="fill:#FFFFFF;stroke:#263238;stroke-linecap:round;stroke-miterlimit:10;" x1="151.033" y1="201.938" x2="155.546" y2="201"/>
				
					<line style="fill:#FFFFFF;stroke:#263238;stroke-linecap:round;stroke-miterlimit:10;" x1="117.046" y1="209" x2="145.941" y2="202.996"/>
				<path style="fill:none;stroke:#263238;stroke-linecap:round;stroke-miterlimit:10;" d="M164.296,198.285
					c0,0,1.75-3.75,1.75-9.25s-0.75-17.25-0.75-17.25l1.75-6.75"/>
				<path style="fill:none;stroke:#263238;stroke-linecap:round;stroke-miterlimit:10;" d="M94.796,174.285l4.75,3.75
					c0,0-0.5,11.5,1,14.5"/>
			</g>
			<path style="fill:#B2B2B2;stroke:#263238;stroke-linecap:round;stroke-miterlimit:10;" d="M180.287,214.477c0,0-6.5-1-11,0.75
				s-13.5,14-13.5,14h11.75c0,0,13.5-4,14.75-8S180.287,214.477,180.287,214.477z"/>
			<path style="fill:#B2B2B2;stroke:#263238;stroke-linecap:round;stroke-miterlimit:10;" d="M83.573,214.477c0,0,6.5-1,11,0.75
				s13.5,14,13.5,14h-11.75c0,0-13.5-4-14.75-8S83.573,214.477,83.573,214.477z"/>
			<g>
				<path style="fill:#B2B2B2;stroke:#263238;stroke-linecap:round;stroke-miterlimit:10;" d="M155.321,103.652
					c0,0,0,3.874-0.323,6.134c-0.323,2.26,1.776,6.942,2.906,8.879c1.13,1.937-2.583,3.552-2.583,3.552l-0.646,0.646
					c0,0-0.42,1.504-0.909,3.207c-0.125,0.437-4.378,0.073-4.378,0.073s3.709,2.295,3.656,2.482
					c-0.553,1.961-0.881,3.099-0.952,3.601c-0.161,1.13-3.713,1.937-5.166,1.776c-1.453-0.161-11.19-1.066-11.19-1.066l0.721,3.064
					l-5.028-3.774c0,0-4.682-23.569-3.552-25.506c1.13-1.937,9.04-7.91,9.847-8.071c0.807-0.161,8.879-1.614,9.686-1.614
					c0.807,0,3.229,0.323,3.229,0.323S155.321,100.262,155.321,103.652z"/>
				<path style="fill:none;stroke:#263238;stroke-linecap:round;stroke-miterlimit:10;" d="M151.77,109.141
					c0,0-1.238-1.783-3.66-1.299c-0.722,0.144-1.32,0.419-1.803,0.732"/>
				<path style="fill:#263238;" d="M151.185,112.258c0,0.958-0.459,1.735-1.025,1.735c-0.566,0-1.025-0.777-1.025-1.735
					s0.459-1.735,1.025-1.735C150.726,110.523,151.185,111.3,151.185,112.258z"/>
				<path style="fill:none;stroke:#263238;stroke-linecap:round;stroke-linejoin:round;stroke-miterlimit:10;" d="M154.243,126.033
					c-1.167,0.355-2.93,0.365-4.872,0.104c1.567,1.026,3.038,1.815,4.04,2.72"/>
				<path style="fill:none;stroke:#263238;stroke-linecap:round;stroke-miterlimit:10;" d="M155.321,122.217
					c0,0-4.776,0.826-4.547-1.006"/>
				
					<line style="fill:none;stroke:#263238;stroke-linecap:round;stroke-miterlimit:10;" x1="147.952" y1="111.312" x2="151.264" y2="110.839"/>
			</g>
			<g>
				<path style="fill:#515B60;stroke:#263238;stroke-linecap:round;stroke-miterlimit:10;" d="M134.619,106.131
					c0,0,0.801,23.22,1.334,25.622c0.534,2.402,3.47,6.939,3.47,6.939s-11.477-1.335-19.216-1.601
					c-7.74-0.267-15.48-2.669-15.48-2.669s0.817-17.031,1.068-27.757c0.438-18.757,10.716-22.888,15.787-25.29
					c5.071-2.402,14.905-1.933,21.578-0.599c6.672,1.334,14.145,14.946,15.213,18.416c1.068,3.47,1.068,5.071,1.068,5.071
					L134.619,106.131z"/>
				
					<line style="fill:none;stroke:#263238;stroke-linecap:round;stroke-miterlimit:10;" x1="109.484" y1="120.534" x2="109.667" y2="117.615"/>
				
					<line style="fill:none;stroke:#263238;stroke-linecap:round;stroke-miterlimit:10;" x1="108.547" y1="135.535" x2="109.228" y2="124.641"/>
				
					<line style="fill:none;stroke:#263238;stroke-linecap:round;stroke-miterlimit:10;" x1="118.627" y1="136.282" x2="119" y2="129.935"/>
				
					<line style="fill:none;stroke:#263238;stroke-linecap:round;stroke-miterlimit:10;" x1="133.188" y1="137.775" x2="129.827" y2="131.055"/>
				<path style="fill:none;stroke:#263238;stroke-linecap:round;stroke-miterlimit:10;" d="M122.6,83.875
					c0,0-7.101,2.291-8.933,9.391"/>
				<path style="fill:none;stroke:#263238;stroke-linecap:round;stroke-miterlimit:10;" d="M124.433,111.362
					c0,2.632,0,4.352,0,4.352"/>
				<path style="fill:none;stroke:#263238;stroke-linecap:round;stroke-miterlimit:10;" d="M126.723,90.747
					c0,0-2.29,2.519-2.29,10.078c0,2.302,0,4.583,0,6.642"/>
				
					<line style="fill:none;stroke:#263238;stroke-linecap:round;stroke-miterlimit:10;" x1="134.619" y1="106.131" x2="136.111" y2="96.711"/>
				
					<line style="fill:none;stroke:#263238;stroke-linecap:round;stroke-miterlimit:10;" x1="144.182" y1="105.267" x2="143.052" y2="100.101"/>
				
					<line style="fill:none;stroke:#263238;stroke-linecap:round;stroke-miterlimit:10;" x1="154.675" y1="104.46" x2="153.384" y2="101.392"/>
			</g>
		</g>
		<g>
			<polygon style="fill:#FFFFFF;stroke:#263238;stroke-linecap:round;stroke-miterlimit:10;" points="182.528,473.667 
				84.928,473.667 72.728,229 194.728,229 			"/>
			<polygon style="fill:#263238;" points="190.788,308 194.179,240 73.276,240 76.667,308 			"/>
			<path style="fill:#263238;" d="M139.941,219.021c-0.012-0.741-0.43-1.374-1.034-1.709c-0.222-9.974-0.935-19.849-1.477-26.213
				c1.125-0.515,1.863-1.688,1.744-2.99c-0.294-3.222-0.505-5.151-0.505-5.151c-0.18-1.647-1.661-2.839-3.308-2.656
				c-1.647,0.18-2.836,1.661-2.657,3.308c0.002,0.015,0.208,1.901,0.494,5.045c0.118,1.296,1.048,2.313,2.239,2.621
				c0.54,6.335,1.249,16.16,1.47,26.076c-0.586,0.357-0.977,0.999-0.965,1.735c0.104,6.388-0.024,11.98-0.381,16.622
				c-0.084,1.102,0.739,2.063,1.841,2.148c0.052,0.004,0.104,0.006,0.155,0.006c1.035,0,1.912-0.798,1.992-1.847
				C139.915,231.25,140.048,225.533,139.941,219.021z"/>
			
				<rect x="60.728" y="229" style="fill:#FFFFFF;stroke:#263238;stroke-linecap:round;stroke-miterlimit:10;" width="146" height="69.333"/>
			<rect x="60.728" y="229" style="fill:#263238;" width="146" height="18.214"/>
			
				<rect x="57.394" y="229" style="fill:#FFFFFF;stroke:#263238;stroke-linecap:round;stroke-miterlimit:10;" width="152.667" height="11.333"/>
		</g>
	</g>
</g>
<g id="Speech_bubble">
	<g>
		<path style="fill:#FFFFFF;stroke:#263238;stroke-linecap:round;stroke-linejoin:round;stroke-miterlimit:10;" d="M192.522,126.913
			l5.511-13.342c-1.877-2.348-3.006-5.32-3.006-8.56V78.81c0-7.581,6.145-13.726,13.726-13.726h53.739
			c7.581,0,13.726,6.145,13.726,13.726v26.201c0,7.581-6.146,13.726-13.726,13.726h-53.739c-0.576,0-1.139-0.047-1.697-0.116
			L192.522,126.913z"/>
		<g>
			<path style="fill:#92E3A9;stroke:#263238;stroke-linecap:round;stroke-linejoin:round;stroke-miterlimit:10;" d="M248.5,91.91
				c0-1.962,1.59-3.552,3.553-3.552s3.553,1.591,3.553,3.552c0,1.962-1.59,3.552-3.553,3.552S248.5,93.872,248.5,91.91z"/>
			<path style="fill:#92E3A9;stroke:#263238;stroke-linecap:round;stroke-linejoin:round;stroke-miterlimit:10;" d="M232.07,91.91
				c0-1.962,1.59-3.552,3.553-3.552c1.962,0,3.552,1.591,3.552,3.552c0,1.962-1.59,3.552-3.552,3.552
				C233.66,95.463,232.07,93.872,232.07,91.91z"/>
			<path style="fill:#92E3A9;stroke:#263238;stroke-linecap:round;stroke-linejoin:round;stroke-miterlimit:10;" d="M215.639,91.91
				c0-1.962,1.59-3.552,3.552-3.552s3.553,1.591,3.553,3.552c0,1.962-1.59,3.552-3.553,3.552S215.639,93.872,215.639,91.91z"/>
		</g>
	</g>
</g>
<g id="Floor">
	
		<line style="fill:#FFFFFF;stroke:#263238;stroke-linecap:round;stroke-miterlimit:10;" x1="20" y1="473.667" x2="483" y2="473.667"/>
</g>
</svg>